<?xml version="1.0" encoding="UTF-8"?>
<svg xmlns="http://www.w3.org/2000/svg" viewBox="0 0 1024 1024">
  <circle cx="512" cy="512" r="512" fill="#0052FF"/>
  <path d="M516.9 188.9c-188.1 0-340.6 152.5-340.6 340.6 0 188.1 152.5 340.6 340.6 340.6 188.1 0 340.6-152.5 340.6-340.6 0-188.1-152.5-340.6-340.6-340.6zm0 608.9c-147.9 0-268.3-120.4-268.3-268.3 0-147.9 120.4-268.3 268.3-268.3 147.9 0 268.3 120.4 268.3 268.3 0 147.9-120.4 268.3-268.3 268.3z" fill="#fff"/>
  <path d="M416.3 500.8h201.2c8.8 0 15.9 7.1 15.9 15.9V518c0 8.8-7.1 15.9-15.9 15.9H416.3c-8.8 0-15.9-7.1-15.9-15.9v-1.3c0-8.7 7.1-15.9 15.9-15.9z" fill="#fff"/>
</svg>