<?xml version="1.0" encoding="UTF-8"?>
<svg xmlns="http://www.w3.org/2000/svg" viewBox="0 0 512 512">
  <g fill="#000">
    <path d="M256 20c-130.7 0-236 105.3-236 236s105.3 236 236 236 236-105.3 236-236S386.7 20 256 20zm0 437.3c-111 0-201.3-90.3-201.3-201.3S145 54.7 256 54.7 457.3 145 457.3 256 367 457.3 256 457.3z"/>
    <path d="M187.7 148l-39.8 216H186l11.5-65h25.9c42.6 0 71.6-20.9 71.6-75.5 0-42.6-20.9-75.5-71.6-75.5h-35.7zm26.5 39.8h9.9c20.9 0 26.6 9.9 26.6 29.8 0 23.1-5.7 41.8-26.6 41.8h-20.9l11-71.6zM325.7 148L286 364h38.2l11.5-65h25.9c17.6 0 29.2-3.8 35-18.7l33.4-132.3h-38.2l-22.1 88c-2.3 8.8-5.7 13.7-16.4 13.7h-20.9l27.6-101.7h-38.2z"/>
  </g>
</svg>