<?xml version="1.0" encoding="UTF-8"?>
<svg xmlns="http://www.w3.org/2000/svg" viewBox="0 0 32 32">
  <circle cx="16" cy="16" r="16" fill="#2962FF"/>
  <path d="M22.6 15.3L18.1 8h-3.7v.7l1.8 1.8c.2.2.2.5.1.7v7.8c.1.3 0 .7-.2.9l-2 1.9v.7h5.6v-.7L17.9 20c-.2-.2-.3-.5-.2-.9v-6.4l4.9 10.7h.9V11.2c0-.2.1-.5.3-.7l1.8-1.8V8h-5.3v.7l1.8 1.8c.2.2.3.4.3.7v4.1h-.8z" fill="#FFF"/>
  <path d="M10 16h1v7h-1z" fill="#FFF"/>
  <path d="M13 16h-1v7h1z" fill="#FFF"/>
  <path d="M11.5 14.3c.6 0 1-.4 1-.9 0-.5-.4-.9-1-.9-.5 0-1 .4-1 .9 0 .5.4.9 1 .9z" fill="#FFF"/>
</svg>