<svg width="1200" height="800" viewBox="0 0 1200 800" fill="none" xmlns="http://www.w3.org/2000/svg">
<defs>
<linearGradient id="gradient1" x1="0%" y1="0%" x2="100%" y2="100%">
<stop offset="0%" style="stop-color:#1f2937;stop-opacity:1" />
<stop offset="100%" style="stop-color:#0f4c75;stop-opacity:1" />
</linearGradient>
<linearGradient id="gradient2" x1="0%" y1="0%" x2="100%" y2="0%">
<stop offset="0%" style="stop-color:#3b82f6;stop-opacity:1" />
<stop offset="100%" style="stop-color:#8b5cf6;stop-opacity:1" />
</linearGradient>
</defs>

<!-- Background -->
<rect width="1200" height="800" fill="url(#gradient1)"/>

<!-- Header Bar -->
<rect x="0" y="0" width="1200" height="80" fill="#1f2937" stroke="#374151" stroke-width="1"/>
<text x="60" y="50" fill="white" font-size="24" font-family="Arial, sans-serif" font-weight="bold">Trade Hybrid</text>

<!-- Sidebar -->
<rect x="0" y="80" width="280" height="720" fill="#111827" stroke="#374151" stroke-width="1"/>
<rect x="20" y="100" width="240" height="40" fill="#374151" rx="8"/>
<text x="30" y="125" fill="#9ca3af" font-size="14" font-family="Arial, sans-serif">Trading Dashboard</text>
<rect x="20" y="160" width="240" height="40" fill="#1f2937" rx="8"/>
<text x="30" y="185" fill="#9ca3af" font-size="14" font-family="Arial, sans-serif">DEX Platform</text>
<rect x="20" y="220" width="240" height="40" fill="#1f2937" rx="8"/>
<text x="30" y="245" fill="#9ca3af" font-size="14" font-family="Arial, sans-serif">Trading Signals</text>

<!-- Main Content Area -->
<rect x="280" y="80" width="920" height="720" fill="#1f2937"/>

<!-- Chart Area -->
<rect x="300" y="100" width="580" height="350" fill="#111827" stroke="#374151" stroke-width="1" rx="8"/>
<text x="320" y="130" fill="white" font-size="18" font-family="Arial, sans-serif" font-weight="bold">Live Market Chart</text>

<!-- Sample Chart Line -->
<polyline points="320,200 360,180 400,220 440,160 480,190 520,140 560,170 600,120 640,150 680,100 720,130 760,90 800,120 840,80" 
          stroke="url(#gradient2)" stroke-width="3" fill="none"/>

<!-- Trading Panel -->
<rect x="900" y="100" width="280" height="350" fill="#111827" stroke="#374151" stroke-width="1" rx="8"/>
<text x="920" y="130" fill="white" font-size="18" font-family="Arial, sans-serif" font-weight="bold">Quick Trade</text>
<rect x="920" y="150" width="240" height="40" fill="#374151" rx="4"/>
<text x="930" y="175" fill="#9ca3af" font-size="14" font-family="Arial, sans-serif">Symbol: BTC/USDT</text>
<rect x="920" y="200" width="115" height="40" fill="#059669" rx="4"/>
<text x="965" y="225" fill="white" font-size="14" font-family="Arial, sans-serif" font-weight="bold">BUY</text>
<rect x="1045" y="200" width="115" height="40" fill="#dc2626" rx="4"/>
<text x="1088" y="225" fill="white" font-size="14" font-family="Arial, sans-serif" font-weight="bold">SELL</text>

<!-- Portfolio Stats -->
<rect x="300" y="470" width="280" height="200" fill="#111827" stroke="#374151" stroke-width="1" rx="8"/>
<text x="320" y="500" fill="white" font-size="18" font-family="Arial, sans-serif" font-weight="bold">Portfolio</text>
<text x="320" y="530" fill="#9ca3af" font-size="14" font-family="Arial, sans-serif">Balance: $25,480.50</text>
<text x="320" y="555" fill="#10b981" font-size="14" font-family="Arial, sans-serif">P&L: +$1,280.50 (5.3%)</text>

<!-- Recent Trades -->
<rect x="600" y="470" width="280" height="200" fill="#111827" stroke="#374151" stroke-width="1" rx="8"/>
<text x="620" y="500" fill="white" font-size="18" font-family="Arial, sans-serif" font-weight="bold">Recent Trades</text>
<text x="620" y="530" fill="#9ca3af" font-size="12" font-family="Arial, sans-serif">BTC/USDT +$240.50</text>
<text x="620" y="550" fill="#9ca3af" font-size="12" font-family="Arial, sans-serif">ETH/USDT +$185.20</text>
<text x="620" y="570" fill="#9ca3af" font-size="12" font-family="Arial, sans-serif">SOL/USDT -$45.30</text>

<!-- Live Signals -->
<rect x="900" y="470" width="280" height="200" fill="#111827" stroke="#374151" stroke-width="1" rx="8"/>
<text x="920" y="500" fill="white" font-size="18" font-family="Arial, sans-serif" font-weight="bold">Live Signals</text>
<rect x="920" y="520" width="240" height="30" fill="#059669" fill-opacity="0.2" stroke="#059669" stroke-width="1" rx="4"/>
<text x="930" y="540" fill="#10b981" font-size="12" font-family="Arial, sans-serif" font-weight="bold">BUY BTC/USDT - Entry: $68,700</text>
<rect x="920" y="560" width="240" height="30" fill="#dc2626" fill-opacity="0.2" stroke="#dc2626" stroke-width="1" rx="4"/>
<text x="930" y="580" fill="#ef4444" font-size="12" font-family="Arial, sans-serif" font-weight="bold">SELL SOL/USDT - Entry: $152.45</text>

<!-- Status Indicators -->
<circle cx="1160" cy="40" r="8" fill="#10b981"/>
<text x="1100" y="45" fill="#10b981" font-size="12" font-family="Arial, sans-serif">Live Data</text>

<!-- Footer -->
<rect x="280" y="720" width="920" height="80" fill="#111827" stroke="#374151" stroke-width="1"/>
<text x="300" y="750" fill="#6b7280" font-size="12" font-family="Arial, sans-serif">Connected to: Drift Protocol • Jupiter DEX • Live Market Data</text>
<text x="300" y="770" fill="#6b7280" font-size="12" font-family="Arial, sans-serif">Trade Hybrid Platform - Professional Trading Interface</text>
</svg>