<?xml version="1.0" encoding="UTF-8" standalone="no"?>
<svg xmlns="http://www.w3.org/2000/svg" width="48" height="48" viewBox="0 0 48 48" fill="none">
  <rect width="48" height="48" rx="8" fill="#0F172A"/>
  <path d="M14 14H34V34H14V14Z" fill="#0F172A"/>
  <path d="M24 10C16.268 10 10 16.268 10 24C10 31.732 16.268 38 24 38C31.732 38 38 31.732 38 24C38 16.268 31.732 10 24 10ZM24 36C17.373 36 12 30.627 12 24C12 17.373 17.373 12 24 12C30.627 12 36 17.373 36 24C36 30.627 30.627 36 24 36Z" fill="#38BDF8"/>
  <path d="M24 16C19.582 16 16 19.582 16 24C16 28.418 19.582 32 24 32C28.418 32 32 28.418 32 24C32 19.582 28.418 16 24 16ZM24 30C20.686 30 18 27.314 18 24C18 20.686 20.686 18 24 18C27.314 18 30 20.686 30 24C30 27.314 27.314 30 24 30Z" fill="#38BDF8"/>
  <path d="M31 19L24 24L31 29V19Z" fill="#FFFFFF"/>
  <path d="M17 19L24 24L17 29V19Z" fill="#FFFFFF"/>
  <path d="M24 20C21.791 20 20 21.791 20 24C20 26.209 21.791 28 24 28C26.209 28 28 26.209 28 24C28 21.791 26.209 20 24 20ZM24 26C22.895 26 22 25.105 22 24C22 22.895 22.895 22 24 22C25.105 22 26 22.895 26 24C26 25.105 25.105 26 24 26Z" fill="#FFFFFF"/>
</svg>