<?xml version="1.0" encoding="UTF-8"?>
<svg xmlns="http://www.w3.org/2000/svg" viewBox="0 0 200 200">
  <rect width="200" height="200" fill="#203354"/>
  <text x="100" y="100" font-family="Arial" font-size="24" text-anchor="middle" fill="white">TH</text>
  <circle cx="100" cy="100" r="60" stroke="#E4C01F" stroke-width="5" fill="none"/>
  <circle cx="100" cy="100" r="70" stroke="#E4C01F" stroke-width="2" fill="none"/>
  <path d="M100 40L100 60" stroke="#E4C01F" stroke-width="4"/>
  <path d="M100 140L100 160" stroke="#E4C01F" stroke-width="4"/>
  <path d="M40 100L60 100" stroke="#E4C01F" stroke-width="4"/>
  <path d="M140 100L160 100" stroke="#E4C01F" stroke-width="4"/>
  
  <!-- Candle chart pattern -->
  <rect x="85" y="80" width="10" height="40" fill="#E4C01F"/>
  <rect x="105" y="70" width="10" height="30" fill="#E4C01F"/>
  <rect x="125" y="90" width="10" height="20" fill="#E4C01F"/>
  <rect x="65" y="75" width="10" height="35" fill="#E4C01F"/>
  
  <line x1="70" y1="65" x2="70" y2="75" stroke="#E4C01F" stroke-width="2"/>
  <line x1="70" y1="110" x2="70" y2="120" stroke="#E4C01F" stroke-width="2"/>
  
  <line x1="90" y1="70" x2="90" y2="80" stroke="#E4C01F" stroke-width="2"/>
  <line x1="90" y1="120" x2="90" y2="130" stroke="#E4C01F" stroke-width="2"/>
  
  <line x1="110" y1="60" x2="110" y2="70" stroke="#E4C01F" stroke-width="2"/>
  <line x1="110" y1="100" x2="110" y2="110" stroke="#E4C01F" stroke-width="2"/>
  
  <line x1="130" y1="80" x2="130" y2="90" stroke="#E4C01F" stroke-width="2"/>
  <line x1="130" y1="110" x2="130" y2="120" stroke="#E4C01F" stroke-width="2"/>
</svg>