<?xml version="1.0" encoding="UTF-8"?>
<svg width="64" height="64" viewBox="0 0 64 64" fill="none" xmlns="http://www.w3.org/2000/svg">
  <rect width="64" height="64" rx="8" fill="#2563EB"/>
  <path d="M37 22C35.3431 22 34 23.3431 34 25C34 26.6569 35.3431 28 37 28C38.6569 28 40 26.6569 40 25C40 23.3431 38.6569 22 37 22Z" fill="white"/>
  <path d="M27 22C25.3431 22 24 23.3431 24 25C24 26.6569 25.3431 28 27 28C28.6569 28 30 26.6569 30 25C30 23.3431 28.6569 22 27 22Z" fill="white"/>
  <path d="M44 32C44 30.8954 43.1046 30 42 30H22C20.8954 30 20 30.8954 20 32V46C20 47.1046 20.8954 48 22 48H42C43.1046 48 44 47.1046 44 46V32Z" fill="white"/>
  <path d="M38 36H36V38H38V36Z" fill="#2563EB"/>
  <path d="M28 36H26V38H28V36Z" fill="#2563EB"/>
  <path d="M34 42C34 43.1046 33.1046 44 32 44C30.8954 44 30 43.1046 30 42H34Z" fill="#2563EB"/>
</svg>