<?xml version="1.0" encoding="UTF-8"?>
<svg xmlns="http://www.w3.org/2000/svg" viewBox="0 0 48 48">
  <path d="M28.382 36.859c-3.131 2.311-7.666 3.544-11.578 3.544-5.475 0-10.408-2.026-14.133-5.395-.293-.267-.031-.631.321-.423 4.025 2.34 8.999 3.75 14.139 3.75 3.466 0 7.275-.718 10.778-2.207.531-.238.975.349.473.731" fill="#FF9900"/>
  <path d="M29.897 35.113c-.4-.513-2.644-.243-3.653-.122-.307.038-.354-.23-.078-.422 1.788-1.258 4.721-.895 5.063-.474.342.422-.091 3.348-1.757 4.742-.256.216-.501.101-.387-.183.375-.938 1.217-3.04.812-3.541" fill="#FF9900"/>
  <path d="M26.913 12.304v-1.705c.004-.259.195-.432.428-.432h7.602c.243 0 .438.173.438.431v1.46c-.003.246-.208.566-.574.1.075l-3.928 5.604c1.457-.035 2.998.183 4.32 1.007.297.183.378.456.401.722v1.816c0 .271-.298.586-.61.424-2.549-1.332-5.929-1.479-8.744.015-.288.152-.59-.155-.59-.427v-1.731c0-.3.006-.812.304-1.268l4.553-6.524h-3.956c-.242 0-.437-.172-.434-.431" fill="#000000"/>
  <path d="M9.95 22.315h-2.312c-.22-.016-.396-.183-.413-.395V8.282c0-.24.201-.431.45-.431h2.156c.227.12.41.187.426.402v1.775h.042c.562-1.5 1.622-2.206 3.048-2.206 1.45 0 2.357.706 3.008 2.206.56-1.5 1.831-2.206 3.191-2.206 1.159 0 2.434.478 3.049 1.554.7 1.197.556 2.936.556 4.453l-.003 8.056c0 .24-.2.431-.45.431H20.39c-.234-.016-.42-.204-.42-.43v-6.768c0-.54.047-1.882-.07-2.394-.187-.861-.748-1.103-1.475-1.103-.607 0-1.24.405-1.497 1.055-.257.65-.233 1.736-.233 2.442v6.768c0 .24-.201.431-.45.431h-2.307c-.235-.016-.42-.204-.42-.43v-6.768c0-1.427.234-3.526-1.545-3.526-1.802 0-1.733 2.044-1.733 3.526v6.768c0 .24-.2.431-.45.431" fill="#000000"/>
  <path d="M36.971 8.195c3.412 0 5.258 2.929 5.258 6.654 0 3.598-2.04 6.453-5.258 6.453-3.352 0-5.175-2.928-5.175-6.575 0-3.672 1.846-6.532 5.175-6.532zm.021 2.418c-1.694 0-1.8 2.313-1.8 3.752 0 1.44-.022 4.529 1.779 4.529 1.779 0 1.865-2.484 1.865-3.995 0-.995-.042-2.185-.343-3.13-.258-.829-.772-1.156-1.501-1.156zM16.803 8.195c3.413 0 5.259 2.929 5.259 6.654 0 3.598-2.041 6.453-5.259 6.453-3.353 0-5.174-2.928-5.174-6.575 0-3.672 1.845-6.532 5.174-6.532zm.022 2.418c-1.695 0-1.8 2.313-1.8 3.752 0 1.44-.022 4.529 1.778 4.529 1.78 0 1.865-2.484 1.865-3.995 0-.995-.042-2.185-.343-3.13-.258-.829-.772-1.156-1.5-1.156z" fill="#000000"/>
</svg>