<?xml version="1.0" encoding="UTF-8"?>
<svg xmlns="http://www.w3.org/2000/svg" viewBox="0 0 48 48">
  <path d="M36.527 25.496c-.051-5.679 4.644-8.423 4.855-8.556-2.647-3.861-6.764-4.39-8.221-4.444-3.477-.357-6.826 2.066-8.597 2.066-1.796 0-4.526-2.033-7.453-1.971-3.805.057-7.34 2.235-9.294 5.643-3.99 6.923-1.017 17.116 2.836 22.711 1.906 2.735 4.15 5.799 7.098 5.689 2.864-.116 3.93-1.835 7.384-1.835 3.435 0 4.446 1.835 7.448 1.772 3.08-.057 5.025-2.772 6.886-5.527 2.19-3.159 3.084-6.236 3.128-6.393-.069-.028-5.992-2.292-6.07-9.155z" fill="#999999"/>
  <path d="M30.128 13.265c1.565-1.918 2.628-4.553 2.333-7.2-2.257.092-5.046 1.52-6.674 3.401-1.444 1.68-2.725 4.394-2.393 6.971 2.529.193 5.124-1.275 6.734-3.172z" fill="#999999"/>
</svg>