<?xml version="1.0" encoding="UTF-8"?>
<svg xmlns="http://www.w3.org/2000/svg" viewBox="0 0 48 48">
  <circle cx="24" cy="24" r="20" fill="#F7931A"/>
  <path d="M30.908 24.461c.427-2.857-1.746-4.395-4.72-5.414l.964-3.868-2.355-.586-.939 3.766c-.619-.154-1.255-.3-1.887-.444l.946-3.793-2.353-.586-.964 3.868c-.513-.117-1.017-.233-1.506-.354l.002-.013-3.248-.812-.626 2.513s1.746.402 1.71.426c.954.238 1.126.87 1.097 1.37l-1.1 4.415c.065.017.15.04.243.078l-.247-.062-1.542 6.188c-.117.29-.413.726-1.08.56.023.034-1.712-.428-1.712-.428l-1.169 2.697 3.063.764.57.142-.97 3.895 2.352.586.964-3.874c.642.175 1.267.337 1.88.49l-.961 3.855 2.354.586.97-3.89c4.01.759 7.021.453 8.286-3.174.99-2.9-.05-4.571-2.082-5.66 1.483-.343 2.6-1.317 2.9-3.33zm-5.192 7.265c-.703 2.9-5.463 1.333-7.014.94l1.253-5.017c1.55.387 6.515 1.153 5.761 4.077zm.701-7.527c-.639 2.628-4.601 1.294-5.885.965l1.136-4.553c1.284.32 5.413 1.09 4.749 3.588z" fill="#FFFFFF"/>
</svg>