<?xml version="1.0" encoding="UTF-8"?>
<svg width="64" height="64" viewBox="0 0 64 64" fill="none" xmlns="http://www.w3.org/2000/svg">
  <rect width="64" height="64" rx="8" fill="#E5E7EB"/>
  <path d="M32 16L44 24V40L32 48L20 40V24L32 16Z" fill="#9CA3AF"/>
  <path d="M32 22L38 26V34L32 38L26 34V26L32 22Z" fill="#F9FAFB"/>
  <path d="M32 29C33.1046 29 34 28.1046 34 27C34 25.8954 33.1046 25 32 25C30.8954 25 30 25.8954 30 27C30 28.1046 30.8954 29 32 29Z" fill="#9CA3AF"/>
  <path d="M32 39C33.1046 39 34 38.1046 34 37C34 35.8954 33.1046 35 32 35C30.8954 35 30 35.8954 30 37C30 38.1046 30.8954 39 32 39Z" fill="#9CA3AF"/>
  <path d="M27 33C28.1046 33 29 32.1046 29 31C29 29.8954 28.1046 29 27 29C25.8954 29 25 29.8954 25 31C25 32.1046 25.8954 33 27 33Z" fill="#9CA3AF"/>
  <path d="M37 33C38.1046 33 39 32.1046 39 31C39 29.8954 38.1046 29 37 29C35.8954 29 35 29.8954 35 31C35 32.1046 35.8954 33 37 33Z" fill="#9CA3AF"/>
</svg>