<?xml version="1.0" encoding="UTF-8"?>
<svg width="64" height="64" viewBox="0 0 64 64" fill="none" xmlns="http://www.w3.org/2000/svg">
  <rect width="64" height="64" rx="8" fill="#5742CD"/>
  <path d="M32 18C25.373 18 20 23.373 20 30V46H44V30C44 23.373 38.627 18 32 18ZM30 24C28.895 24 28 24.895 28 26C28 27.105 28.895 28 30 28C31.105 28 32 27.105 32 26C32 24.895 31.105 24 30 24ZM34 24C32.895 24 32 24.895 32 26C32 27.105 32.895 28 34 28C35.105 28 36 27.105 36 26C36 24.895 35.105 24 34 24ZM25 32C23.895 32 23 32.895 23 34C23 35.105 23.895 36 25 36C26.105 36 27 35.105 27 34C27 32.895 26.105 32 25 32ZM39 32C37.895 32 37 32.895 37 34C37 35.105 37.895 36 39 36C40.105 36 41 35.105 41 34C41 32.895 40.105 32 39 32ZM28 38C26.895 38 26 38.895 26 40C26 41.105 26.895 42 28 42C29.105 42 30 41.105 30 40C30 38.895 29.105 38 28 38ZM36 38C34.895 38 34 38.895 34 40C34 41.105 34.895 42 36 42C37.105 42 38 41.105 38 40C38 38.895 37.105 38 36 38Z" fill="white"/>
</svg>