<?xml version="1.0" encoding="UTF-8"?>
<svg xmlns="http://www.w3.org/2000/svg" viewBox="0 0 48 48">
  <path d="M40.911 10.88c4.05 0 7.089 14.12 7.089 26.27h-3.804c0-12.81-1.733-23.165-3.804-23.165-2.45 0-3.803 13.62-3.803 23.165h-3.804c0-10.55-1.353-19.191-3.803-19.191s-3.804 8.64-3.804 19.192h-3.803c0-9.55-1.354-19.192-3.804-19.192-2.45 0-3.803 9.642-3.803 19.192H10.76c0-9.55-1.354-23.166-3.804-23.166-2.088 0-3.804 10.355-3.804 23.166H0c0-12.15 3.039-26.27 7.089-26.27 4.05 0 7.089 11.785 7.089 25.08 0-13.51 2.449-21.93 6.621-21.93 4.172 0 6.854 8.42 6.854 20.78 0-12.36 2.45-20.78 6.621-20.78 4.172 0 6.621 8.42 6.621 21.93 0-13.295 3.04-25.08 7.09-25.08z" fill="#FFCC00"/>
</svg>