<?xml version="1.0" encoding="UTF-8"?>
<svg width="64" height="64" viewBox="0 0 64 64" fill="none" xmlns="http://www.w3.org/2000/svg">
  <rect width="64" height="64" rx="8" fill="#1C1C1E"/>
  <path d="M32 18C24.268 18 18 24.268 18 32C18 39.732 24.268 46 32 46C39.732 46 46 39.732 46 32C46 24.268 39.732 18 32 18ZM32 42C26.477 42 22 37.523 22 32C22 26.477 26.477 22 32 22C37.523 22 42 26.477 42 32C42 37.523 37.523 42 32 42Z" fill="#009AFF"/>
  <path d="M32 26C28.6863 26 26 28.6863 26 32C26 35.3137 28.6863 38 32 38C35.3137 38 38 35.3137 38 32C38 28.6863 35.3137 26 32 26ZM32 34C30.8954 34 30 33.1046 30 32C30 30.8954 30.8954 30 32 30C33.1046 30 34 30.8954 34 32C34 33.1046 33.1046 34 32 34Z" fill="white"/>
</svg>