<?xml version="1.0" encoding="UTF-8"?>
<svg width="64" height="64" viewBox="0 0 64 64" fill="none" xmlns="http://www.w3.org/2000/svg">
  <rect width="64" height="64" rx="8" fill="#F3F4F6"/>
  <path d="M32 20C27.5817 20 24 23.5817 24 28C24 32.4183 27.5817 36 32 36C36.4183 36 40 32.4183 40 28C40 23.5817 36.4183 20 32 20ZM32 34C28.6863 34 26 31.3137 26 28C26 24.6863 28.6863 22 32 22C35.3137 22 38 24.6863 38 28C38 31.3137 35.3137 34 32 34Z" fill="#94A3B8"/>
  <path d="M32 44C24.268 44 18 37.732 18 30C18 22.268 24.268 16 32 16C39.732 16 46 22.268 46 30C46 37.732 39.732 44 32 44ZM32 18C25.383 18 20 23.383 20 30C20 36.617 25.383 42 32 42C38.617 42 44 36.617 44 30C44 23.383 38.617 18 32 18Z" fill="#64748B"/>
  <path d="M24 48H40C41.1046 48 42 48.8954 42 50V50C42 51.1046 41.1046 52 40 52H24C22.8954 52 22 51.1046 22 50V50C22 48.8954 22.8954 48 24 48Z" fill="#475569"/>
</svg>