<?xml version="1.0" encoding="UTF-8"?>
<svg xmlns="http://www.w3.org/2000/svg" viewBox="0 0 48 48" width="48" height="48">
  <circle cx="24" cy="24" r="24" fill="#F3BA2F"/>
  <path d="M17.4131,23.9999L24.0001,17.413L30.5881,23.9999L34.3651,20.2229L24.0001,9.8589L13.6351,20.2229L17.4131,23.9999Z" fill="#FFFFFF"/>
  <path d="M9.8589,24L13.6359,20.223L17.4129,24L13.6359,27.777L9.8589,24Z" fill="#FFFFFF"/>
  <path d="M17.4131,24.0001L24.0001,30.5871L30.5881,24.0001L34.3651,27.7771L24.0001,38.1411L13.6351,27.7771L17.4131,24.0001Z" fill="#FFFFFF"/>
  <path d="M38.1411,24L34.3641,27.777L30.5871,24L34.3641,20.223L38.1411,24Z" fill="#FFFFFF"/>
  <path d="M24.0181,17.396L30.6051,23.9819L24.0181,30.5689L17.4311,23.9819L24.0181,17.396Z" fill="#FFFFFF"/>
</svg>