<?xml version="1.0" encoding="UTF-8"?>
<svg xmlns="http://www.w3.org/2000/svg" viewBox="0 0 48 48" width="48" height="48">
  <circle cx="24" cy="24" r="24" fill="#F7931A"/>
  <path fill="#FFFFFF" d="M34.0419,20.6839C33.4729,17.2019 30.3719,15.7299 26.6079,16.2069L25.3949,11.7249L22.8139,12.3559L24.0019,16.7349C23.2959,16.9099 22.5739,17.0999 21.8569,17.2899L20.6609,12.8779L18.0819,13.5089L19.2939,17.9909C18.7139,18.1469 18.1449,18.2999 17.5879,18.4439L17.5769,18.4409L14.0039,19.2879L14.6789,22.0559C14.6789,22.0559 16.5879,21.5779 16.5559,21.5999C17.6069,21.3409 17.9059,22.0229 17.9699,22.5459L19.3599,27.7959C19.4279,27.7799 19.5169,27.7579 19.6149,27.7429C19.5329,27.7619 19.4459,27.7809 19.3569,27.7989L21.2469,35.0559C21.2679,35.3539 21.1569,35.8449 20.4389,36.0199C20.4599,36.0329 18.5639,36.4659 18.5639,36.4659L19.7409,39.4999L23.0929,38.7049C23.7579,38.5429 24.4119,38.3899 25.0509,38.2309L26.2769,42.7629L28.8549,42.1329L27.6429,37.6679C28.3819,37.4709 29.0949,37.2729 29.7869,37.0659L30.9929,41.5069L33.5749,40.8759L32.3479,36.3459C36.9599,35.1499 40.1749,32.7629 39.3979,28.0269C38.7629,24.1999 36.3539,22.9669 33.3479,23.2319C34.6829,21.3059 34.4689,19.0389 34.0419,20.6839ZM34.2789,27.7679C34.9459,31.2959 30.0419,32.3589 28.1829,32.8879L26.5339,26.6949C28.3929,26.1669 33.5879,24.1579 34.2789,27.7679ZM25.7619,21.2969C26.4879,24.5769 22.3169,25.5019 20.7419,25.9499L19.2479,20.2979C20.8229,19.8499 24.9799,17.9009 25.7619,21.2969Z"/>
</svg>