<?xml version="1.0" encoding="UTF-8"?>
<svg xmlns="http://www.w3.org/2000/svg" viewBox="0 0 48 48" width="48" height="48">
  <circle cx="24" cy="24" r="24" fill="#14F195"/>
  <path fill="#000000" d="M35.9195,19.018L32.1929,15.2914C31.7343,14.8328 31.0542,14.8328 30.5956,15.2914L17.0213,28.8658C16.5627,29.3244 15.8826,29.3244 15.424,28.8658L11.6973,25.1392C11.2387,24.6806 10.5586,24.6806 10.1,25.1392L6.3734,28.8658C5.9148,29.3244 5.9148,30.0045 6.3734,30.4631L13.8267,37.9164C14.2853,38.375 14.9654,38.375 15.424,37.9164L35.9195,17.4208C36.3781,16.9622 36.3781,16.2821 35.9195,15.8235L35.9195,19.018ZM35.9195,27.9977L32.1929,24.2711C31.7343,23.8125 31.0542,23.8125 30.5956,24.2711L17.0213,37.8454C16.5627,38.304 15.8826,38.304 15.424,37.8454L11.6973,34.1188C11.2387,33.6602 10.5586,33.6602 10.1,34.1188L6.3733,37.8454C5.9148,38.304 5.9148,38.9841 6.3733,39.4427L13.8266,46.896C14.2852,47.3546 14.9653,47.3546 15.4239,46.896L35.9194,26.4004C36.3781,25.9418 36.3781,25.2617 35.9194,24.8031L35.9195,27.9977ZM32.1929,33.2508C31.7343,32.7922 31.0542,32.7922 30.5956,33.2508L24.0002,39.8462C23.5416,40.3048 22.8615,40.3048 22.4029,39.8462L15.4241,32.8673C14.9655,32.4087 14.2854,32.4087 13.8268,32.8673L10.1001,36.594C9.6415,37.0526 9.6415,37.7327 10.1001,38.1913L17.5534,45.6446C18.012,46.1032 18.6921,46.1032 19.1507,45.6446L35.9195,28.8758C36.3781,28.4172 36.3781,27.7371 35.9195,27.2785L32.1929,23.5519C31.7343,23.0933 31.0542,23.0933 30.5956,23.5519L32.1929,33.2508Z" fill-opacity="0.85"/>
</svg>