<?xml version="1.0" encoding="UTF-8"?>
<svg xmlns="http://www.w3.org/2000/svg" viewBox="0 0 48 48" width="48" height="48">
  <circle cx="24" cy="24" r="24" fill="#26A17B"/>
  <path fill="#FFFFFF" d="M24.5,10h-8.9v5.9h-4.8v3.5h18.5v-3.5h-4.8V10z M30.8,23.4c-0.5,0.3-3.2,1.3-6.8,1.3s-6.3-1-6.8-1.3c-4.2-1.3-7.2-3-7.2-4.7v13c0,1.7,3,3.4,7.2,4.7c0.5,0.3,3.2,1.3,6.8,1.3s6.3-1,6.8-1.3c4.2-1.3,7.2-3,7.2-4.7v-13C38,20.4,35,22.1,30.8,23.4z M30.8,34.7C30.3,35,27.5,36,24,36s-6.3-1-6.8-1.3c-3.5-1.1-5.9-2.4-6.6-3.6v3c0,1.7,3,3.4,7.2,4.7c0.5,0.3,3.2,1.3,6.8,1.3s6.3-1,6.8-1.3c4.2-1.3,7.2-3,7.2-4.7v-3C36.8,32.3,34.3,33.6,30.8,34.7z M30.8,29.4C30.3,29.7,27.5,30.7,24,30.7s-6.3-1-6.8-1.3c-3.5-1.1-5.9-2.4-6.6-3.6v3c0,1.7,3,3.4,7.2,4.7c0.5,0.3,3.2,1.3,6.8,1.3s6.3-1,6.8-1.3c4.2-1.3,7.2-3,7.2-4.7v-3C36.8,27,34.3,28.3,30.8,29.4z"/>
</svg>