<svg xmlns="http://www.w3.org/2000/svg" width="800" height="450" viewBox="0 0 800 450">
  <rect width="800" height="450" fill="#111827" />
  
  <!-- Background grid -->
  <path d="M0,50 L800,50 M0,100 L800,100 M0,150 L800,150 M0,200 L800,200 M0,250 L800,250 M0,300 L800,300 M0,350 L800,350 M0,400 L800,400" stroke="#1f2937" stroke-width="1" />
  <path d="M100,0 L100,450 M200,0 L200,450 M300,0 L300,450 M400,0 L400,450 M500,0 L500,450 M600,0 L600,450 M700,0 L700,450" stroke="#1f2937" stroke-width="1" />
  
  <!-- Price chart -->
  <path d="M50,350 L100,320 L150,340 L200,310 L250,290 L300,300 L350,250 L400,230 L450,210 L500,180 L550,200 L600,160 L650,130 L700,150 L750,120" stroke="#3b82f6" stroke-width="2" fill="none" />
  
  <!-- Candlesticks -->
  <rect x="65" y="330" width="10" height="30" fill="#059669" />
  <line x1="70" y1="320" x2="70" y2="330" stroke="#059669" stroke-width="2" />
  <line x1="70" y1="360" x2="70" y2="370" stroke="#059669" stroke-width="2" />
  
  <rect x="115" y="300" width="10" height="40" fill="#059669" />
  <line x1="120" y1="290" x2="120" y2="300" stroke="#059669" stroke-width="2" />
  <line x1="120" y1="340" x2="120" y2="350" stroke="#059669" stroke-width="2" />
  
  <rect x="165" y="330" width="10" height="20" fill="#dc2626" />
  <line x1="170" y1="325" x2="170" y2="330" stroke="#dc2626" stroke-width="2" />
  <line x1="170" y1="350" x2="170" y2="360" stroke="#dc2626" stroke-width="2" />
  
  <rect x="215" y="300" width="10" height="30" fill="#059669" />
  <line x1="220" y1="290" x2="220" y2="300" stroke="#059669" stroke-width="2" />
  <line x1="220" y1="330" x2="220" y2="340" stroke="#059669" stroke-width="2" />
  
  <!-- AI Signal indicators -->
  <circle cx="300" cy="300" r="6" fill="#22c55e" />
  <text x="300" y="280" fill="#22c55e" font-family="sans-serif" font-size="12" text-anchor="middle">BUY</text>
  
  <circle cx="450" cy="210" r="6" fill="#22c55e" />
  <text x="450" y="190" fill="#22c55e" font-family="sans-serif" font-size="12" text-anchor="middle">BUY</text>
  
  <circle cx="600" cy="160" r="6" fill="#22c55e" />
  <text x="600" y="140" fill="#22c55e" font-family="sans-serif" font-size="12" text-anchor="middle">BUY</text>
  
  <circle cx="700" cy="150" r="6" fill="#ef4444" />
  <text x="700" y="130" fill="#ef4444" font-family="sans-serif" font-size="12" text-anchor="middle">SELL</text>
  
  <!-- AI trend prediction -->
  <path d="M750,120 Q760,100 770,90 Q780,80 790,70" stroke="#3b82f6" stroke-width="2" stroke-dasharray="5,5" fill="none" />
  
  <!-- Indicators panel -->
  <rect x="50" y="380" width="700" height="60" fill="#1f2937" rx="5" />
  
  <!-- RSI indicator -->
  <path d="M50,410 L100,415 L150,405 L200,420 L250,430 L300,415 L350,410 L400,405 L450,395 L500,385 L550,390 L600,380 L650,370 L700,380 L750,375" stroke="#a855f7" stroke-width="1.5" fill="none" />
  
  <!-- Volume bars -->
  <rect x="65" y="422" width="10" height="8" fill="#059669" />
  <rect x="115" y="422" width="10" height="12" fill="#059669" />
  <rect x="165" y="422" width="10" height="6" fill="#dc2626" />
  <rect x="215" y="422" width="10" height="10" fill="#059669" />
  <rect x="265" y="422" width="10" height="8" fill="#059669" />
  <rect x="315" y="422" width="10" height="14" fill="#059669" />
  <rect x="365" y="422" width="10" height="6" fill="#dc2626" />
  <rect x="415" y="422" width="10" height="10" fill="#059669" />
  <rect x="465" y="422" width="10" height="12" fill="#059669" />
  <rect x="515" y="422" width="10" height="5" fill="#dc2626" />
  <rect x="565" y="422" width="10" height="9" fill="#059669" />
  <rect x="615" y="422" width="10" height="15" fill="#059669" />
  <rect x="665" y="422" width="10" height="7" fill="#dc2626" />
  <rect x="715" y="422" width="10" height="10" fill="#059669" />
  
  <!-- AI logo/icon -->
  <circle cx="400" cy="80" r="30" fill="#0284c7" opacity="0.9" />
  <path d="M385,80 L415,80 M400,65 L400,95" stroke="white" stroke-width="3" />
  <path d="M380,70 L420,90 M380,90 L420,70" stroke="white" stroke-width="3" />
  
  <text x="400" y="130" fill="#f8fafc" font-family="sans-serif" font-size="16" font-weight="bold" text-anchor="middle">HYBRID AI INDICATOR</text>
</svg>