<svg xmlns="http://www.w3.org/2000/svg" width="800" height="450" viewBox="0 0 800 450">
  <rect width="800" height="450" fill="#111827" />
  
  <!-- Background grid -->
  <path d="M0,50 L800,50 M0,100 L800,100 M0,150 L800,150 M0,200 L800,200 M0,250 L800,250 M0,300 L800,300 M0,350 L800,350 M0,400 L800,400" stroke="#1f2937" stroke-width="1" />
  <path d="M100,0 L100,450 M200,0 L200,450 M300,0 L300,450 M400,0 L400,450 M500,0 L500,450 M600,0 L600,450 M700,0 L700,450" stroke="#1f2937" stroke-width="1" />
  
  <!-- Main price chart -->
  <path d="M50,300 L100,320 L150,310 L200,330 L250,340 L300,320 L350,280 L400,230 L450,250 L500,210 L550,170 L600,150 L650,170 L700,130 L750,110" stroke="#0ea5e9" stroke-width="2" fill="none" />
  
  <!-- Supercator indicator lines -->
  <path d="M50,320 L100,340 L150,330 L200,350 L250,360 L300,340 L350,300 L400,250 L450,270 L500,230 L550,190 L600,170 L650,190 L700,150 L750,130" stroke="#a855f7" stroke-width="1.5" fill="none" />
  <path d="M50,280 L100,300 L150,290 L200,310 L250,320 L300,300 L350,260 L400,210 L450,230 L500,190 L550,150 L600,130 L650,150 L700,110 L750,90" stroke="#22c55e" stroke-width="1.5" fill="none" />
  
  <!-- Signal points -->
  <circle cx="300" cy="320" r="6" fill="#ec4899" />
  <circle cx="350" cy="280" r="6" fill="#22c55e" />
  <circle cx="450" cy="250" r="6" fill="#ef4444" />
  <circle cx="550" cy="170" r="6" fill="#22c55e" />
  <circle cx="650" cy="170" r="6" fill="#ef4444" />
  
  <!-- Signal labels -->
  <text x="300" y="300" fill="#ec4899" font-family="sans-serif" font-size="12" text-anchor="middle">PIVOT</text>
  <text x="350" y="260" fill="#22c55e" font-family="sans-serif" font-size="12" text-anchor="middle">BUY</text>
  <text x="450" y="230" fill="#ef4444" font-family="sans-serif" font-size="12" text-anchor="middle">SELL</text>
  <text x="550" y="150" fill="#22c55e" font-family="sans-serif" font-size="12" text-anchor="middle">BUY</text>
  <text x="650" y="150" fill="#ef4444" font-family="sans-serif" font-size="12" text-anchor="middle">SELL</text>
  
  <!-- Trend strength meter -->
  <rect x="60" y="80" width="200" height="15" rx="7.5" fill="#1f2937" />
  <rect x="60" y="80" width="150" height="15" rx="7.5" fill="#22c55e" />
  <text x="160" y="70" fill="#f8fafc" font-family="sans-serif" font-size="12" text-anchor="middle">TREND STRENGTH: 75%</text>
  
  <!-- Stop loss guides -->
  <path d="M350,280 L350,330" stroke="#64748b" stroke-width="1" stroke-dasharray="4,4" />
  <path d="M350,330 L400,330" stroke="#ef4444" stroke-width="1.5" stroke-dasharray="4,4" />
  <text x="370" y="345" fill="#ef4444" font-family="sans-serif" font-size="10" text-anchor="middle">STOP</text>
  
  <path d="M550,170 L550,220" stroke="#64748b" stroke-width="1" stroke-dasharray="4,4" />
  <path d="M550,220 L600,220" stroke="#ef4444" stroke-width="1.5" stroke-dasharray="4,4" />
  <text x="570" y="235" fill="#ef4444" font-family="sans-serif" font-size="10" text-anchor="middle">STOP</text>
  
  <!-- Volume indicator at bottom -->
  <rect x="50" y="410" width="700" height="30" fill="#1f2937" rx="5" />
  
  <!-- Volume bars -->
  <rect x="60" y="420" width="5" height="10" fill="#059669" />
  <rect x="110" y="420" width="5" height="15" fill="#059669" />
  <rect x="160" y="420" width="5" height="8" fill="#dc2626" />
  <rect x="210" y="420" width="5" height="12" fill="#059669" />
  <rect x="260" y="420" width="5" height="7" fill="#dc2626" />
  <rect x="310" y="420" width="5" height="18" fill="#059669" />
  <rect x="360" y="420" width="5" height="20" fill="#059669" />
  <rect x="410" y="420" width="5" height="14" fill="#059669" />
  <rect x="460" y="420" width="5" height="6" fill="#dc2626" />
  <rect x="510" y="420" width="5" height="16" fill="#059669" />
  <rect x="560" y="420" width="5" height="18" fill="#059669" />
  <rect x="610" y="420" width="5" height="8" fill="#dc2626" />
  <rect x="660" y="420" width="5" height="14" fill="#059669" />
  <rect x="710" y="420" width="5" height="5" fill="#dc2626" />
  
  <!-- Title -->
  <text x="400" y="40" fill="#f8fafc" font-family="sans-serif" font-size="18" font-weight="bold" text-anchor="middle">SUPERCATOR INDICATOR</text>
</svg>